# xmcd
# 
# Track frame offsets:
#     150
#     24687
#     52107
#     74496
#     93210
#     113070
#     135157
#     155383
#     178405
#     198337
#     214418
#     231400
# 
# Disc length: 3322
# 
# Revision: 0
# Processed by: cddbd v1.5.2PL0 Copyright (c) Steve Scherf et al.
# Submitted via: fre:ac v1.0.31
# 
DISCID=ae0cf80c
DTITLE=Various Artist - Blues Mix Vol. 23: Ultimate Southern Soul
DYEAR=2017
DGENRE=Blues
TTITLE0=Mr. Sam - Broke as Hell (Remix)
TTITLE1=Ms. Jody - Booty Strut
TTITLE2=O. B. Buchana - I Got to Get Myself Together
TTITLE3=Jaye Hammer - Big Booty Women (Remix)
TTITLE4=Quinn Golden - I Just Wanna Do It
TTITLE5=Mr. Sam - She Don't Want Me No More
TTITLE6=Sheba Potts-Wright - I Want Yo' Man
TTITLE7=Ms. Jody - I Ain't Gonna Lie This Time
TTITLE8=O. B. Buchana - This Party Is a Mutha
TTITLE9=Randolph Walker - Sunshine 98
TTITLE10=Randolph Walker - The Masquerade Is Over
TTITLE11=Val McKnight - Make Me Shout Ooh, Ooh, Ooh!
EXTD=
EXTT0=
EXTT1=
EXTT2=
EXTT3=
EXTT4=
EXTT5=
EXTT6=
EXTT7=
EXTT8=
EXTT9=
EXTT10=
EXTT11=
PLAYORDER=
